# xmcd
#
# Track frame offsets:
#	150
#	17712
#	34168
#	47178
#	63990
#	85606
#	104229
#	120362
#	136303
#	153865
#	170321
#	183331
#	200143
#	221759
#	240382
#	256515
#
# Disc length: 3632 seconds
#
# Revision: 2
# Processed by: cddbd v1.5.1PL2 Copyright (c) Steve Scherf et al.
# Submitted via: audiograbber 1.83.01
#
DISCID=d40e2e10
DTITLE=Karaoke Party - KP6014
DYEAR=1900
DGENRE=Karaoke Country
TTITLE0=Tim McGraw - The Cowboy In Me
TTITLE1=Lonestar - Unusually Unusual
TTITLE2=Emerson Drive - Fall Into Me
TTITLE3=Shania Twain - Ka Ching
TTITLE4=Kenny Chesney - A Lot Of Things Different
TTITLE5=Brad Paisley - I Wish You'd Stay
TTITLE6=Brooks and Dunn - Every River
TTITLE7=Lee Ann Womack - Does My Ring Burn Your Finger
TTITLE8=Tim McGraw - The Cowboy In Me
TTITLE9=Lonestar - Unusually Unusual
TTITLE10=Emerson Drive - Fall Into Me
TTITLE11=Shania Twain - Ka Ching
TTITLE12=Kenny Chesney - A Lot Of Things Different
TTITLE13=Brad Paisley - I Wish You'd Stay
TTITLE14=Brooks and Dunn - Every River
TTITLE15=Lee Ann Womack - Does My Ring Burn Your Finger
EXTD=Tracks 9-16 Demos
EXTT0=
EXTT1=
EXTT2=
EXTT3=
EXTT4=
EXTT5=
EXTT6=
EXTT7=
EXTT8=
EXTT9=
EXTT10=
EXTT11=
EXTT12=
EXTT13=
EXTT14=
EXTT15=
PLAYORDER=
